<svg xmlns="http://www.w3.org/2000/svg" width="220" height="35" viewBox="0 0 58.208 9.26" xmlns:v="https://vecta.io/nano"><path d="M37.636 6.58H36.3l-1.5-2.375-1.56 2.375h-1.32l2.3-3.198-2.033-2.95h1.273L34.835 2.6l1.4-2.165h1.234l-2.033 2.9zm5.798 0H42.1l-1.5-2.375-1.56 2.375h-1.32l2.3-3.198-2.033-2.95h1.273L40.632 2.6 42.02.433h1.234l-2.033 2.9zm5.796 0h-1.335l-1.5-2.375-1.56 2.375h-1.32l2.3-3.198-2.033-2.95h1.273L46.43 2.6l1.4-2.167h1.234l-2.033 2.9z" fill="red"/><path d="M.25 1.382q0-.496.452-.887.43-.375.904-.375H5.99q.47 0 .854.375.402.38.402.887v1.384H5.592v-.628q0-.15-.127-.254-.127-.1-.31-.1H2.34q-.176 0-.303.1-.127.105-.127.254v5.07q0 .15.127.254.127.1.303.1h2.817q.182 0 .31-.1.127-.105.127-.254V5.5h-2.1V3.846h3.754v4.118q0 .507-.402.887-.386.375-.854.375H1.606q-.474 0-.904-.375Q.25 8.46.25 7.964z" fill="#fff"/><path d="M15.023.12v9.106H9.136V.12z" fill="red"/><path d="M22.663.12q.463 0 .85.375.402.38.402.887v2.855q0 .507-.402.893-.386.37-.85.37h-.1l1.703 3.726h-1.9L20.662 5.5h-2.1v3.726H16.92V.12zm-.838 3.726q.182 0 .3-.105.127-.1.127-.26V2.137q0-.15-.127-.254-.127-.1-.3-.1h-3.252v2.073zm3.958 5.38V.12h5.657v7.452H49.7v1.654zm25.444-7.844q0-.496.452-.887.43-.375.904-.375h4.382q.47 0 .854.375.402.38.402.887v1.384h-1.654v-.628q0-.15-.127-.254-.127-.1-.3-.1h-2.817q-.176 0-.303.1-.127.105-.127.254v1.345q0 .15.127.26.127.105.303.105h3.55q.474 0 .904.37.452.4.452.893v2.855q0 .496-.452.887-.43.375-.904.375H52.48q-.47 0-.854-.375-.402-.38-.402-.887V6.58h1.66v.628q0 .15.127.254.127.1.303.1h2.817q.182 0 .3-.1.127-.105.127-.254V5.864q0-.15-.127-.26-.127-.105-.3-.105h-3.55q-.474 0-.904-.37-.452-.4-.452-.893z" fill="#fff"/></svg>