<svg xmlns="http://www.w3.org/2000/svg" xmlns:xlink="http://www.w3.org/1999/xlink" width="299px" height="105px" viewBox="0 0 299 105" version="1.1">
<defs>
<clipPath id="clip1">
  <path d="M 117 0 L 122 0 L 122 104.3125 L 117 104.3125 Z M 117 0 "/>
</clipPath>
<clipPath id="clip2">
  <path d="M 132.738281 51 L 265 51 L 265 100 L 132.738281 100 Z M 132.738281 51 "/>
</clipPath>
<clipPath id="clip3">
  <path d="M 30 47 L 102 47 L 102 95.992188 L 30 95.992188 Z M 30 47 "/>
</clipPath>
<clipPath id="clip4">
  <path d="M 2.070312 8.320312 L 105.695312 8.320312 L 105.695312 75 L 2.070312 75 Z M 2.070312 8.320312 "/>
</clipPath>
</defs>
<g id="surface1">
<g clip-path="url(#clip1)" clip-rule="nonzero">
<path style=" stroke:none;fill-rule:nonzero;fill:rgb(100%,100%,100%);fill-opacity:1;" d="M 119.21875 0 C 120.414062 0 121.386719 1.335938 121.386719 2.988281 L 121.386719 101.324219 C 121.386719 102.972656 120.414062 104.3125 119.21875 104.3125 C 118.019531 104.3125 117.050781 102.972656 117.050781 101.324219 L 117.050781 2.988281 C 117.050781 1.335938 118.019531 0 119.21875 0 Z M 119.21875 0 "/>
</g>
<path style=" stroke:none;fill-rule:nonzero;fill:rgb(100%,100%,100%);fill-opacity:1;" d="M 170.082031 46.429688 L 156.40625 46.429688 L 156.40625 45.121094 C 157.785156 44.839844 158.863281 44.523438 159.644531 44.171875 C 160.421875 43.832031 160.8125 43.53125 160.8125 43.265625 L 160.8125 11.285156 C 160.8125 11.042969 160.441406 10.742188 159.703125 10.375 C 158.96875 10.011719 157.867188 9.6875 156.40625 9.402344 L 156.40625 8.09375 L 170.082031 8.09375 L 170.082031 9.402344 C 168.722656 9.6875 167.648438 9.996094 166.859375 10.335938 C 166.074219 10.6875 165.679688 11.003906 165.679688 11.285156 L 165.679688 43.265625 C 165.679688 43.503906 166.046875 43.804688 166.785156 44.160156 C 167.523438 44.519531 168.625 44.839844 170.082031 45.121094 Z M 161.421875 27.722656 L 141.421875 27.722656 L 141.421875 24.980469 L 161.421875 24.980469 Z M 146.6875 46.429688 L 133.011719 46.429688 L 133.011719 45.121094 C 134.386719 44.839844 135.464844 44.523438 136.246094 44.171875 C 137.027344 43.832031 137.417969 43.53125 137.417969 43.265625 L 137.417969 11.285156 C 137.417969 11.042969 137.046875 10.742188 136.308594 10.375 C 135.570312 10.011719 134.46875 9.6875 133.011719 9.402344 L 133.011719 8.09375 L 146.6875 8.09375 L 146.6875 9.402344 C 145.328125 9.6875 144.253906 9.996094 143.464844 10.335938 C 142.675781 10.6875 142.28125 11.003906 142.28125 11.285156 L 142.28125 43.265625 C 142.28125 43.503906 142.648438 43.804688 143.378906 44.160156 C 144.097656 44.519531 145.203125 44.839844 146.6875 45.121094 Z M 198.484375 29.480469 C 198.117188 29.886719 197.632812 30.261719 197.027344 30.601562 C 196.421875 30.949219 195.792969 31.257812 195.148438 31.523438 L 177.699219 31.523438 L 177.761719 28.78125 L 192.347656 28.78125 C 192.8125 28.78125 193.121094 28.707031 193.28125 28.558594 C 193.429688 28.398438 193.503906 28.109375 193.503906 27.6875 C 193.503906 27.136719 193.421875 26.460938 193.257812 25.652344 C 193.097656 24.839844 192.800781 24.03125 192.359375 23.222656 C 191.929688 22.425781 191.296875 21.757812 190.46875 21.21875 C 189.636719 20.683594 188.5625 20.421875 187.246094 20.421875 C 185.628906 20.421875 184.207031 20.894531 182.988281 21.839844 C 181.777344 22.796875 180.835938 24.09375 180.164062 25.730469 C 179.5 27.359375 179.167969 29.21875 179.167969 31.3125 C 179.167969 33.441406 179.527344 35.421875 180.238281 37.257812 C 180.960938 39.09375 181.992188 40.570312 183.335938 41.695312 C 184.691406 42.824219 186.296875 43.386719 188.152344 43.386719 C 189.007812 43.386719 189.832031 43.300781 190.628906 43.125 C 191.433594 42.953125 192.351562 42.574219 193.378906 41.992188 C 194.417969 41.402344 195.683594 40.488281 197.175781 39.25 C 197.441406 39.390625 197.671875 39.597656 197.871094 39.863281 C 198.082031 40.121094 198.226562 40.332031 198.308594 40.496094 C 196.5 42.464844 194.960938 43.941406 193.691406 44.921875 C 192.414062 45.910156 191.210938 46.558594 190.082031 46.867188 C 188.960938 47.179688 187.703125 47.339844 186.300781 47.339844 C 184.234375 47.339844 182.308594 46.757812 180.523438 45.59375 C 178.75 44.421875 177.316406 42.785156 176.230469 40.683594 C 175.144531 38.574219 174.601562 36.085938 174.601562 33.21875 C 174.601562 30.484375 175.195312 27.898438 176.378906 25.453125 C 177.566406 23.003906 179.214844 21.058594 181.320312 19.621094 C 182.207031 18.992188 183.292969 18.433594 184.570312 17.953125 C 185.847656 17.460938 187.019531 17.21875 188.089844 17.21875 C 190.082031 17.21875 191.746094 17.605469 193.082031 18.386719 C 194.417969 19.171875 195.480469 20.179688 196.265625 21.417969 C 197.054688 22.65625 197.625 23.984375 197.972656 25.40625 C 198.3125 26.824219 198.484375 28.183594 198.484375 29.480469 Z M 234.335938 46.429688 L 221.269531 46.429688 L 221.269531 45.121094 C 224.105469 44.390625 225.523438 43.769531 225.523438 43.265625 L 225.523438 27.175781 C 225.523438 24.699219 225.238281 23.078125 224.667969 22.3125 C 224.085938 21.558594 223.078125 21.179688 221.640625 21.179688 C 220.40625 21.179688 218.878906 21.816406 217.0625 23.085938 C 215.253906 24.367188 213.367188 26.582031 211.398438 29.730469 L 211.398438 43.265625 C 211.398438 43.570312 211.785156 43.886719 212.558594 44.210938 C 213.320312 44.535156 214.351562 44.839844 215.65625 45.121094 L 215.65625 46.429688 L 202.589844 46.429688 L 202.589844 45.121094 C 203.925781 44.78125 204.964844 44.464844 205.714844 44.171875 C 206.46875 43.890625 206.84375 43.589844 206.84375 43.265625 L 206.84375 24.792969 C 206.84375 23.738281 206.773438 22.957031 206.632812 22.453125 C 206.492188 21.945312 206.128906 21.589844 205.539062 21.390625 C 204.949219 21.183594 203.96875 21.007812 202.589844 20.867188 L 202.589844 19.660156 C 203.96875 19.433594 205.25 19.113281 206.433594 18.699219 C 207.621094 18.285156 208.769531 17.789062 209.882812 17.21875 L 210.941406 18.289062 L 211.277344 25.867188 C 212.46875 24.054688 213.800781 22.503906 215.269531 21.21875 C 216.738281 19.929688 218.195312 18.941406 219.640625 18.25 C 221.074219 17.5625 222.316406 17.21875 223.371094 17.21875 C 225.113281 17.21875 226.671875 17.757812 228.039062 18.835938 C 229.398438 19.910156 230.078125 21.589844 230.078125 23.882812 L 230.078125 43.265625 C 230.078125 43.53125 230.390625 43.804688 231.011719 44.085938 C 231.625 44.371094 232.734375 44.714844 234.335938 45.121094 Z M 254.90625 41.320312 L 255.789062 42.863281 C 253.808594 44.351562 251.898438 45.46875 250.066406 46.21875 C 248.234375 46.964844 246.777344 47.339844 245.699219 47.339844 C 244.304688 47.339844 243.074219 46.773438 242.015625 45.644531 C 240.945312 44.507812 240.410156 42.523438 240.410156 39.699219 L 240.410156 21.019531 L 236.5 21.019531 L 235.855469 20.171875 L 238.230469 18.125 L 240.410156 18.125 L 240.410156 10.648438 L 244.03125 7.484375 L 244.976562 8.242188 L 244.976562 18.125 L 254.90625 18.125 L 255.789062 19.011719 C 255.402344 19.585938 254.894531 20.195312 254.273438 20.84375 C 253.640625 21.492188 253.125 21.90625 252.71875 22.089844 C 252.234375 21.847656 251.496094 21.613281 250.5 21.378906 C 249.507812 21.140625 248.191406 21.019531 246.558594 21.019531 L 244.976562 21.019531 L 244.976562 37.082031 C 244.976562 39.515625 245.214844 41.179688 245.699219 42.066406 C 246.1875 42.949219 247.039062 43.386719 248.25 43.386719 C 248.960938 43.386719 249.855469 43.246094 250.925781 42.964844 C 252.003906 42.675781 253.332031 42.125 254.90625 41.320312 Z M 284.351562 42.566406 L 284.800781 43.9375 C 283.082031 45.109375 281.660156 45.96875 280.53125 46.515625 C 279.410156 47.066406 278.566406 47.339844 277.992188 47.339844 C 277.285156 47.339844 276.710938 46.808594 276.261719 45.742188 C 275.824219 44.679688 275.601562 43.246094 275.601562 41.445312 L 275.601562 25.070312 C 275.601562 23.6875 275.246094 22.53125 274.53125 21.589844 C 273.828125 20.644531 272.480469 20.199219 270.488281 20.257812 C 269.195312 20.28125 268.015625 20.671875 266.953125 21.429688 C 265.890625 22.195312 265.417969 23.183594 265.535156 24.394531 C 265.574219 24.644531 265.234375 24.917969 264.503906 25.21875 C 263.78125 25.527344 262.996094 25.773438 262.148438 25.964844 C 261.3125 26.15625 260.71875 26.214844 260.371094 26.140625 L 259.945312 24.945312 C 260.578125 23.589844 261.609375 22.328125 263.046875 21.15625 C 264.488281 19.992188 266.117188 19.046875 267.925781 18.3125 C 269.742188 17.582031 271.5 17.21875 273.199219 17.21875 C 275.425781 17.21875 277.140625 17.804688 278.351562 18.972656 C 279.554688 20.136719 280.15625 21.761719 280.15625 23.847656 L 280.15625 41.007812 C 280.15625 42.59375 280.558594 43.386719 281.363281 43.386719 C 281.65625 43.386719 282.019531 43.328125 282.460938 43.214844 C 282.90625 43.105469 283.539062 42.890625 284.351562 42.566406 Z M 275.902344 29.292969 L 275.902344 31.585938 C 273.570312 31.953125 271.757812 32.3125 270.464844 32.671875 C 269.167969 33.035156 268.1875 33.417969 267.511719 33.816406 C 266.851562 34.214844 266.292969 34.648438 265.847656 35.113281 C 265.339844 35.660156 264.921875 36.285156 264.589844 36.984375 C 264.25 37.679688 264.078125 38.507812 264.078125 39.460938 C 264.078125 40.535156 264.277344 41.355469 264.675781 41.929688 C 265.074219 42.496094 265.535156 42.878906 266.058594 43.078125 C 266.582031 43.285156 267.015625 43.386719 267.363281 43.386719 C 268.617188 43.386719 269.953125 43.050781 271.371094 42.378906 C 272.789062 41.714844 274.300781 40.671875 275.902344 39.25 L 276.148438 41.496094 C 274.242188 43.546875 272.347656 45.035156 270.464844 45.957031 C 268.582031 46.878906 266.949219 47.339844 265.570312 47.339844 C 264.601562 47.339844 263.617188 47.125 262.621094 46.691406 C 261.628906 46.25 260.792969 45.542969 260.121094 44.574219 C 259.441406 43.601562 259.101562 42.332031 259.101562 40.769531 C 259.101562 39.210938 259.371094 37.917969 259.910156 36.894531 C 260.441406 35.863281 261.082031 34.976562 261.839844 34.230469 C 262.503906 33.554688 263.3125 32.9375 264.265625 32.371094 C 265.21875 31.808594 266.601562 31.269531 268.410156 30.765625 C 270.226562 30.257812 272.722656 29.765625 275.902344 29.292969 Z M 297.082031 8.058594 C 297.082031 9.195312 296.746094 10.175781 296.074219 11 C 295.410156 11.820312 294.570312 12.230469 293.546875 12.230469 C 291.847656 12.230469 290.996094 11.257812 290.996094 9.304688 C 290.996094 8.148438 291.339844 7.171875 292.03125 6.375 C 292.71875 5.566406 293.539062 5.164062 294.492188 5.164062 C 296.21875 5.164062 297.082031 6.128906 297.082031 8.058594 Z M 300.417969 46.429688 L 287.351562 46.429688 L 287.351562 45.121094 C 290.1875 44.554688 291.605469 43.9375 291.605469 43.265625 L 291.605469 26.039062 C 291.605469 24.644531 291.546875 23.601562 291.433594 22.914062 C 291.308594 22.222656 290.949219 21.742188 290.363281 21.46875 C 289.773438 21.191406 288.769531 20.992188 287.351562 20.867188 L 287.351562 19.660156 C 288.628906 19.410156 289.988281 19.070312 291.433594 18.636719 C 292.867188 18.199219 294.097656 17.722656 295.128906 17.21875 L 296.160156 17.21875 L 296.160156 43.265625 C 296.160156 43.503906 296.5 43.804688 297.183594 44.160156 C 297.863281 44.519531 298.941406 44.839844 300.417969 45.121094 Z M 300.417969 46.429688 "/>
<g clip-path="url(#clip2)" clip-rule="nonzero">
<path style=" stroke:none;fill-rule:nonzero;fill:rgb(100%,100%,100%);fill-opacity:1;" d="M 161.324219 69.757812 C 161.324219 71.871094 160.910156 73.6875 160.078125 75.21875 C 159.25 76.746094 158.1875 78.007812 156.890625 79.007812 C 155.597656 80.003906 154.242188 80.742188 152.824219 81.226562 C 151.402344 81.714844 150.097656 81.960938 148.902344 81.960938 C 147.019531 81.960938 145.390625 81.65625 144.011719 81.050781 L 143.316406 78.757812 C 144.144531 79.148438 144.953125 79.398438 145.742188 79.503906 C 146.53125 79.621094 147.28125 79.679688 147.996094 79.679688 C 149.246094 79.679688 150.535156 79.355469 151.863281 78.707031 C 153.191406 78.050781 154.316406 77.078125 155.238281 75.792969 C 156.15625 74.503906 156.617188 72.910156 156.617188 71.003906 C 156.617188 68.769531 156.109375 66.960938 155.085938 65.570312 C 154.058594 64.183594 152.6875 63.167969 150.96875 62.519531 C 149.242188 61.871094 147.339844 61.546875 145.257812 61.546875 C 143.132812 61.546875 141.050781 61.648438 139.007812 61.859375 C 136.976562 62.074219 134.976562 62.351562 133.011719 62.691406 L 132.738281 60.8125 C 134.703125 60.289062 136.957031 59.851562 139.496094 59.503906 C 142.042969 59.164062 144.539062 58.992188 146.984375 58.992188 C 151.34375 58.992188 154.824219 59.914062 157.425781 61.757812 C 160.023438 63.601562 161.324219 66.269531 161.324219 69.757812 Z M 147.597656 98.238281 L 133.011719 98.238281 L 133.011719 96.929688 C 134.386719 96.644531 135.464844 96.328125 136.246094 95.980469 C 137.027344 95.640625 137.417969 95.335938 137.417969 95.070312 L 137.417969 61.421875 L 142.28125 61.421875 L 142.28125 95.070312 C 142.28125 95.3125 142.640625 95.59375 143.351562 95.917969 C 144.074219 96.25 145.488281 96.585938 147.597656 96.929688 Z M 196.207031 94.375 L 196.515625 95.742188 C 195.03125 96.714844 193.679688 97.527344 192.460938 98.175781 C 191.230469 98.824219 190.363281 99.144531 189.859375 99.144531 C 189.144531 99.144531 188.566406 98.675781 188.128906 97.738281 C 187.679688 96.789062 187.394531 95.273438 187.269531 93.1875 C 185.59375 94.867188 184.101562 96.132812 182.789062 96.992188 C 181.488281 97.835938 180.316406 98.410156 179.28125 98.710938 C 178.25 99 177.300781 99.144531 176.429688 99.144531 C 175.171875 99.144531 173.988281 98.894531 172.882812 98.386719 C 171.78125 97.878906 170.894531 96.949219 170.21875 95.59375 C 169.539062 94.230469 169.199219 92.28125 169.199219 89.75 L 169.199219 76.601562 C 169.199219 75.304688 169.132812 74.378906 169 73.824219 C 168.867188 73.265625 168.527344 72.894531 167.980469 72.714844 C 167.433594 72.53125 166.535156 72.375 165.28125 72.253906 L 165.28125 71.03125 C 166.738281 70.847656 168.042969 70.601562 169.1875 70.296875 C 170.332031 69.980469 171.574219 69.554688 172.910156 69.023438 L 173.753906 70.207031 L 173.753906 88.078125 C 173.753906 90.914062 174.164062 92.855469 174.988281 93.910156 C 175.808594 94.96875 176.949219 95.496094 178.410156 95.496094 C 179.71875 95.496094 181.082031 95.101562 182.492188 94.3125 C 183.902344 93.523438 185.492188 92.171875 187.269531 90.261719 L 187.269531 76.601562 C 187.269531 75.390625 187.175781 74.484375 186.984375 73.882812 C 186.792969 73.285156 186.398438 72.878906 185.800781 72.664062 C 185.203125 72.449219 184.28125 72.3125 183.027344 72.253906 L 183.027344 71.03125 C 184.480469 70.847656 185.878906 70.566406 187.234375 70.183594 C 188.578125 69.800781 189.804688 69.414062 190.917969 69.023438 L 191.835938 70.207031 L 191.835938 90.507812 C 191.835938 91.746094 191.886719 92.765625 191.988281 93.5625 C 192.085938 94.371094 192.269531 94.871094 192.535156 95.070312 C 192.757812 95.238281 193.167969 95.273438 193.765625 95.183594 C 194.363281 95.09375 195.175781 94.820312 196.207031 94.375 Z M 212.496094 98.238281 L 198.820312 98.238281 L 198.820312 96.929688 C 200.5625 96.621094 201.753906 96.316406 202.402344 96.019531 C 203.050781 95.710938 203.375 95.394531 203.375 95.070312 L 203.375 58.804688 C 203.375 57.609375 203.257812 56.753906 203.023438 56.238281 C 202.792969 55.714844 202.371094 55.363281 201.753906 55.179688 C 201.132812 54.996094 200.257812 54.84375 199.128906 54.730469 L 199.128906 53.507812 C 200.582031 53.226562 201.921875 52.910156 203.148438 52.5625 C 204.378906 52.222656 205.609375 51.726562 206.84375 51.078125 L 207.941406 52.113281 L 207.941406 95.070312 C 207.941406 95.378906 208.285156 95.695312 208.972656 96.019531 C 209.660156 96.34375 210.835938 96.644531 212.496094 96.929688 Z M 235.132812 89.625 C 235.132812 91.777344 234.710938 93.492188 233.863281 94.773438 C 233.027344 96.042969 232.003906 96.992188 230.800781 97.625 C 229.589844 98.257812 228.414062 98.667969 227.28125 98.859375 C 226.136719 99.050781 225.265625 99.144531 224.679688 99.144531 C 223.722656 99.144531 222.558594 98.964844 221.183594 98.597656 C 219.804688 98.234375 218.433594 97.675781 217.074219 96.929688 C 216.960938 96.84375 216.875 96.515625 216.828125 95.945312 C 216.777344 95.363281 216.761719 94.664062 216.777344 93.851562 C 216.792969 93.042969 216.847656 92.25 216.9375 91.46875 C 217.027344 90.6875 217.148438 90.074219 217.300781 89.625 L 218.605469 89.960938 C 218.707031 91.664062 219.472656 93.113281 220.90625 94.3125 C 222.34375 95.507812 224.105469 96.105469 226.195312 96.105469 C 227.65625 96.105469 228.851562 95.664062 229.78125 94.785156 C 230.710938 93.902344 231.175781 92.753906 231.175781 91.332031 C 231.175781 90.394531 230.921875 89.601562 230.414062 88.953125 C 229.910156 88.304688 229.105469 87.648438 228 86.984375 C 226.898438 86.308594 225.445312 85.507812 223.644531 84.578125 C 222.535156 83.988281 221.46875 83.347656 220.449219 82.660156 C 219.4375 81.96875 218.609375 81.164062 217.972656 80.242188 C 217.339844 79.316406 217.023438 78.21875 217.023438 76.9375 C 217.023438 75.25 217.460938 73.824219 218.332031 72.652344 C 219.203125 71.46875 220.328125 70.574219 221.703125 69.957031 C 223.082031 69.335938 224.53125 69.023438 226.046875 69.023438 C 226.894531 69.023438 227.835938 69.121094 228.871094 69.3125 C 229.902344 69.511719 230.890625 69.78125 231.835938 70.121094 C 232.773438 70.46875 233.507812 70.886719 234.039062 71.367188 C 234.195312 71.507812 234.179688 71.910156 233.988281 72.574219 C 233.796875 73.234375 233.546875 73.902344 233.242188 74.582031 C 232.941406 75.265625 232.703125 75.710938 232.519531 75.929688 L 231.324219 75.691406 C 230.378906 74.253906 229.378906 73.242188 228.324219 72.652344 C 227.269531 72.0625 226.246094 71.765625 225.25 71.765625 C 223.914062 71.765625 222.867188 72.164062 222.101562 72.960938 C 221.347656 73.769531 220.96875 74.585938 220.96875 75.417969 C 220.96875 76.53125 221.519531 77.476562 222.613281 78.257812 C 223.707031 79.039062 225.398438 80.027344 227.679688 81.226562 C 228.855469 81.832031 230.019531 82.496094 231.164062 83.21875 C 232.308594 83.941406 233.253906 84.8125 234 85.824219 C 234.753906 86.835938 235.132812 88.105469 235.132812 89.625 Z M 264.203125 81.289062 C 263.839844 81.695312 263.351562 82.070312 262.746094 82.410156 C 262.140625 82.757812 261.515625 83.066406 260.867188 83.332031 L 243.421875 83.332031 L 243.484375 80.589844 L 258.066406 80.589844 C 258.53125 80.589844 258.839844 80.515625 258.988281 80.363281 C 259.148438 80.207031 259.226562 79.917969 259.226562 79.492188 C 259.226562 78.945312 259.140625 78.269531 258.976562 77.460938 C 258.820312 76.648438 258.519531 75.835938 258.082031 75.03125 C 257.648438 74.234375 257.019531 73.5625 256.1875 73.023438 C 255.351562 72.492188 254.277344 72.226562 252.964844 72.226562 C 251.339844 72.226562 249.921875 72.699219 248.710938 73.648438 C 247.488281 74.605469 246.546875 75.898438 245.882812 77.535156 C 245.210938 79.164062 244.875 81.027344 244.875 83.121094 C 244.875 85.246094 245.238281 87.226562 245.960938 89.0625 C 246.679688 90.898438 247.714844 92.378906 249.058594 93.5 C 250.402344 94.632812 252.007812 95.195312 253.875 95.195312 C 254.730469 95.195312 255.554688 95.109375 256.351562 94.933594 C 257.148438 94.757812 258.0625 94.382812 259.101562 93.800781 C 260.128906 93.210938 261.394531 92.296875 262.898438 91.058594 C 263.160156 91.199219 263.394531 91.402344 263.59375 91.667969 C 263.800781 91.925781 263.941406 92.136719 264.015625 92.304688 C 262.214844 94.273438 260.679688 95.746094 259.398438 96.730469 C 258.128906 97.71875 256.933594 98.363281 255.804688 98.671875 C 254.683594 98.988281 253.421875 99.144531 252.019531 99.144531 C 249.953125 99.144531 248.027344 98.5625 246.246094 97.402344 C 244.460938 96.230469 243.03125 94.59375 241.953125 92.492188 C 240.867188 90.382812 240.320312 87.894531 240.320312 85.027344 C 240.320312 82.292969 240.914062 79.703125 242.101562 77.261719 C 243.289062 74.8125 244.933594 72.867188 247.042969 71.429688 C 247.929688 70.796875 249.011719 70.242188 250.289062 69.757812 C 251.566406 69.269531 252.742188 69.023438 253.8125 69.023438 C 255.792969 69.023438 257.453125 69.414062 258.789062 70.195312 C 260.132812 70.976562 261.199219 71.988281 261.988281 73.222656 C 262.777344 74.460938 263.34375 75.792969 263.691406 77.210938 C 264.03125 78.632812 264.203125 79.992188 264.203125 81.289062 Z M 264.203125 81.289062 "/>
</g>
<path style=" stroke:none;fill-rule:nonzero;fill:rgb(100%,100%,100%);fill-opacity:1;" d="M 27.027344 78.722656 C 18.382812 71.84375 9.933594 63.386719 5.652344 54.238281 L 6.085938 54.234375 L 8.34375 54.234375 C 8.878906 54.234375 9.359375 53.933594 9.585938 53.449219 L 9.878906 52.839844 L 12.496094 47.285156 L 14.722656 52.839844 L 16.628906 57.566406 C 16.855469 58.128906 17.425781 58.472656 18.027344 58.410156 C 18.628906 58.351562 19.121094 57.902344 19.230469 57.304688 L 20.058594 52.839844 L 24.125 30.832031 L 25.460938 52.839844 Z M 27.027344 78.722656 "/>
<g clip-path="url(#clip3)" clip-rule="nonzero">
<path style=" stroke:none;fill-rule:nonzero;fill:rgb(100%,100%,100%);fill-opacity:1;" d="M 101.890625 54.199219 C 91.117188 77.277344 53.761719 95.992188 53.761719 95.992188 C 53.761719 95.992188 42.371094 90.285156 30.355469 81.292969 L 37.980469 55.160156 L 38.808594 57.222656 C 39.011719 57.730469 39.503906 58.066406 40.058594 58.074219 C 40.613281 58.082031 41.109375 57.75 41.328125 57.246094 L 43.222656 52.835938 L 45.488281 47.558594 L 48.597656 52.835938 L 49.003906 53.527344 C 49.253906 53.945312 49.699219 54.199219 50.183594 54.199219 Z M 101.890625 54.199219 "/>
</g>
<g clip-path="url(#clip4)" clip-rule="nonzero">
<path style=" stroke:none;fill-rule:nonzero;fill:rgb(100%,100%,100%);fill-opacity:1;" d="M 105.699219 38.964844 C 105.699219 43.417969 104.753906 47.648438 103.042969 51.472656 L 50.960938 51.472656 L 46.472656 43.851562 C 46.210938 43.410156 45.722656 43.152344 45.210938 43.1875 C 44.699219 43.21875 44.25 43.535156 44.046875 44.007812 L 40.253906 52.839844 L 40.113281 53.164062 L 39.980469 52.839844 L 39.035156 50.492188 C 38.820312 49.953125 38.285156 49.609375 37.707031 49.636719 C 37.125 49.664062 36.628906 50.0625 36.46875 50.621094 L 35.820312 52.839844 L 29.507812 74.476562 L 28.1875 52.839844 L 26.171875 19.546875 C 26.136719 18.859375 25.585938 18.304688 24.898438 18.261719 C 24.207031 18.21875 23.597656 18.703125 23.472656 19.382812 L 17.40625 52.191406 L 13.859375 43.363281 C 13.652344 42.863281 13.171875 42.527344 12.628906 42.507812 C 12.09375 42.492188 11.59375 42.800781 11.355469 43.292969 L 7.484375 51.519531 L 6.113281 51.519531 L 4.644531 51.507812 C 4.570312 51.390625 4.488281 51.277344 4.394531 51.175781 C 4.066406 50.265625 3.785156 49.339844 3.550781 48.402344 C 2.566406 45.355469 2.066406 42.167969 2.070312 38.964844 C 2.070312 22.042969 15.765625 8.320312 32.664062 8.320312 C 40.90625 8.320312 48.382812 11.582031 53.886719 16.890625 C 59.386719 11.582031 66.863281 8.320312 75.105469 8.320312 C 92.003906 8.320312 105.699219 22.042969 105.699219 38.964844 "/>
</g>
</g>
</svg>