<svg width="188" height="53" viewBox="0 0 188 53" fill="none" xmlns="http://www.w3.org/2000/svg">
<circle cx="162" cy="27" r="26" fill="white" fill-opacity="0.08"/>
<path d="M18.114 20.4C18.634 21.46 18.894 22.64 18.894 23.94C18.894 25.24 18.634 26.42 18.114 27.48C17.594 28.52 16.924 29.35 16.104 29.97C14.444 31.25 12.724 31.89 10.944 31.89H7.19397V35.28C7.19397 35.74 7.17397 36.09 7.13397 36.33C7.11397 36.55 7.02397 36.81 6.86397 37.11C6.58397 37.65 5.80397 37.92 4.52397 37.92C3.12397 37.92 2.30397 37.55 2.06397 36.81C1.94397 36.47 1.88397 35.95 1.88397 35.25V18.6C1.88397 18.14 1.89397 17.8 1.91397 17.58C1.95397 17.34 2.05397 17.07 2.21397 16.77C2.49397 16.23 3.27397 15.96 4.55397 15.96H10.974C12.734 15.96 14.444 16.6 16.104 17.88C16.924 18.5 17.594 19.34 18.114 20.4ZM10.974 26.58C11.574 26.58 12.164 26.36 12.744 25.92C13.324 25.48 13.614 24.82 13.614 23.94C13.614 23.06 13.324 22.4 12.744 21.96C12.164 21.5 11.564 21.27 10.944 21.27H7.19397V26.58H10.974Z" fill="#ED1630"/>
<path d="M34.159 15.69C37.119 15.69 39.6891 16.76 41.8691 18.9C44.0491 21.04 45.1391 23.7 45.1391 26.88C45.1391 30.04 44.0991 32.74 42.0191 34.98C39.9391 37.2 37.3791 38.31 34.3391 38.31C31.299 38.31 28.709 37.21 26.569 35.01C24.449 32.81 23.389 30.19 23.389 27.15C23.389 25.49 23.6891 23.94 24.2891 22.5C24.8891 21.04 25.6891 19.82 26.6891 18.84C27.6891 17.86 28.8391 17.09 30.139 16.53C31.4391 15.97 32.7791 15.69 34.159 15.69ZM28.6991 27C28.6991 28.78 29.2691 30.23 30.409 31.35C31.569 32.45 32.859 33 34.279 33C35.6991 33 36.9791 32.46 38.1191 31.38C39.2591 30.3 39.8291 28.85 39.8291 27.03C39.8291 25.21 39.2491 23.75 38.0891 22.65C36.9491 21.55 35.6691 21 34.2491 21C32.8291 21 31.549 21.56 30.409 22.68C29.2691 23.78 28.6991 25.22 28.6991 27Z" fill="#ED1630"/>
<path d="M66.9308 34.23C67.2308 34.95 67.3808 35.47 67.3808 35.79C67.3808 36.55 66.7608 37.19 65.5208 37.71C64.8808 37.99 64.3608 38.13 63.9608 38.13C63.5808 38.13 63.2608 38.04 63.0008 37.86C62.7608 37.66 62.5808 37.46 62.4608 37.26C62.2608 36.88 61.4808 35.07 60.1208 31.83L59.1908 31.89H55.4108V35.28C55.4108 35.74 55.3908 36.09 55.3508 36.33C55.3308 36.55 55.2408 36.81 55.0808 37.11C54.8008 37.65 54.0208 37.92 52.7408 37.92C51.3408 37.92 50.5208 37.55 50.2808 36.81C50.1608 36.47 50.1008 35.95 50.1008 35.25V18.6C50.1008 18.14 50.1108 17.8 50.1308 17.58C50.1708 17.34 50.2708 17.07 50.4308 16.77C50.7108 16.23 51.4908 15.96 52.7708 15.96H59.2508C61.0108 15.96 62.7208 16.6 64.3808 17.88C65.1808 18.5 65.8408 19.34 66.3608 20.4C66.8808 21.46 67.1408 22.64 67.1408 23.94C67.1408 26.2 66.3908 28.06 64.8908 29.52C65.3308 30.58 66.0108 32.15 66.9308 34.23ZM55.4108 26.58H59.2508C59.8308 26.58 60.4108 26.36 60.9908 25.92C61.5708 25.48 61.8608 24.82 61.8608 23.94C61.8608 23.06 61.5708 22.4 60.9908 21.96C60.4108 21.5 59.8108 21.27 59.1908 21.27H55.4108V26.58Z" fill="#ED1630"/>
<path d="M86.2166 16.89C86.4165 16.53 86.7066 16.29 87.0866 16.17C87.4666 16.05 87.9366 15.99 88.4966 15.99C89.0766 15.99 89.5365 16.04 89.8765 16.14C90.2365 16.24 90.4966 16.36 90.6565 16.5C90.8365 16.64 90.9666 16.85 91.0466 17.13C91.1666 17.45 91.2265 17.96 91.2265 18.66V35.31C91.2265 35.79 91.2066 36.14 91.1665 36.36C91.1466 36.58 91.0566 36.84 90.8966 37.14C90.6166 37.68 89.8365 37.95 88.5565 37.95C87.7766 37.95 87.2366 37.89 86.9366 37.77C86.6366 37.65 86.3866 37.46 86.1866 37.2C81.6866 31.2 78.7265 27.28 77.3065 25.44V35.31C77.3065 35.79 77.2866 36.14 77.2466 36.36C77.2266 36.58 77.1366 36.84 76.9765 37.14C76.6965 37.68 75.9165 37.95 74.6366 37.95C73.3966 37.95 72.6366 37.68 72.3566 37.14C72.1965 36.84 72.0965 36.57 72.0565 36.33C72.0366 36.09 72.0266 35.74 72.0266 35.28V18.54C72.0266 17.78 72.1165 17.23 72.2965 16.89C72.4965 16.53 72.7866 16.29 73.1665 16.17C73.5465 16.05 74.0366 15.99 74.6366 15.99C75.2365 15.99 75.7066 16.05 76.0465 16.17C76.4065 16.27 76.6565 16.39 76.7965 16.53C76.8765 16.59 77.1066 16.85 77.4865 17.31C81.7066 23.05 84.5266 26.84 85.9465 28.68V18.54C85.9465 17.78 86.0366 17.23 86.2166 16.89Z" fill="#ED1630"/>
<path d="M18.114 20.4C18.634 21.46 18.894 22.64 18.894 23.94C18.894 25.24 18.634 26.42 18.114 27.48C17.594 28.52 16.924 29.35 16.104 29.97C14.444 31.25 12.724 31.89 10.944 31.89H7.19397V35.28C7.19397 35.74 7.17397 36.09 7.13397 36.33C7.11397 36.55 7.02397 36.81 6.86397 37.11C6.58397 37.65 5.80397 37.92 4.52397 37.92C3.12397 37.92 2.30397 37.55 2.06397 36.81C1.94397 36.47 1.88397 35.95 1.88397 35.25V18.6C1.88397 18.14 1.89397 17.8 1.91397 17.58C1.95397 17.34 2.05397 17.07 2.21397 16.77C2.49397 16.23 3.27397 15.96 4.55397 15.96H10.974C12.734 15.96 14.444 16.6 16.104 17.88C16.924 18.5 17.594 19.34 18.114 20.4ZM10.974 26.58C11.574 26.58 12.164 26.36 12.744 25.92C13.324 25.48 13.614 24.82 13.614 23.94C13.614 23.06 13.324 22.4 12.744 21.96C12.164 21.5 11.564 21.27 10.944 21.27H7.19397V26.58H10.974Z" stroke="#1A1A1C"/>
<path d="M34.159 15.69C37.119 15.69 39.6891 16.76 41.8691 18.9C44.0491 21.04 45.1391 23.7 45.1391 26.88C45.1391 30.04 44.0991 32.74 42.0191 34.98C39.9391 37.2 37.3791 38.31 34.3391 38.31C31.299 38.31 28.709 37.21 26.569 35.01C24.449 32.81 23.389 30.19 23.389 27.15C23.389 25.49 23.6891 23.94 24.2891 22.5C24.8891 21.04 25.6891 19.82 26.6891 18.84C27.6891 17.86 28.8391 17.09 30.139 16.53C31.4391 15.97 32.7791 15.69 34.159 15.69ZM28.6991 27C28.6991 28.78 29.2691 30.23 30.409 31.35C31.569 32.45 32.859 33 34.279 33C35.6991 33 36.9791 32.46 38.1191 31.38C39.2591 30.3 39.8291 28.85 39.8291 27.03C39.8291 25.21 39.2491 23.75 38.0891 22.65C36.9491 21.55 35.6691 21 34.2491 21C32.8291 21 31.549 21.56 30.409 22.68C29.2691 23.78 28.6991 25.22 28.6991 27Z" stroke="#1A1A1C"/>
<path d="M66.9308 34.23C67.2308 34.95 67.3808 35.47 67.3808 35.79C67.3808 36.55 66.7608 37.19 65.5208 37.71C64.8808 37.99 64.3608 38.13 63.9608 38.13C63.5808 38.13 63.2608 38.04 63.0008 37.86C62.7608 37.66 62.5808 37.46 62.4608 37.26C62.2608 36.88 61.4808 35.07 60.1208 31.83L59.1908 31.89H55.4108V35.28C55.4108 35.74 55.3908 36.09 55.3508 36.33C55.3308 36.55 55.2408 36.81 55.0808 37.11C54.8008 37.65 54.0208 37.92 52.7408 37.92C51.3408 37.92 50.5208 37.55 50.2808 36.81C50.1608 36.47 50.1008 35.95 50.1008 35.25V18.6C50.1008 18.14 50.1108 17.8 50.1308 17.58C50.1708 17.34 50.2708 17.07 50.4308 16.77C50.7108 16.23 51.4908 15.96 52.7708 15.96H59.2508C61.0108 15.96 62.7208 16.6 64.3808 17.88C65.1808 18.5 65.8408 19.34 66.3608 20.4C66.8808 21.46 67.1408 22.64 67.1408 23.94C67.1408 26.2 66.3908 28.06 64.8908 29.52C65.3308 30.58 66.0108 32.15 66.9308 34.23ZM55.4108 26.58H59.2508C59.8308 26.58 60.4108 26.36 60.9908 25.92C61.5708 25.48 61.8608 24.82 61.8608 23.94C61.8608 23.06 61.5708 22.4 60.9908 21.96C60.4108 21.5 59.8108 21.27 59.1908 21.27H55.4108V26.58Z" stroke="#1A1A1C"/>
<path d="M86.2166 16.89C86.4165 16.53 86.7066 16.29 87.0866 16.17C87.4666 16.05 87.9366 15.99 88.4966 15.99C89.0766 15.99 89.5365 16.04 89.8765 16.14C90.2365 16.24 90.4966 16.36 90.6565 16.5C90.8365 16.64 90.9666 16.85 91.0466 17.13C91.1666 17.45 91.2265 17.96 91.2265 18.66V35.31C91.2265 35.79 91.2066 36.14 91.1665 36.36C91.1466 36.58 91.0566 36.84 90.8966 37.14C90.6166 37.68 89.8365 37.95 88.5565 37.95C87.7766 37.95 87.2366 37.89 86.9366 37.77C86.6366 37.65 86.3866 37.46 86.1866 37.2C81.6866 31.2 78.7265 27.28 77.3065 25.44V35.31C77.3065 35.79 77.2866 36.14 77.2466 36.36C77.2266 36.58 77.1366 36.84 76.9765 37.14C76.6965 37.68 75.9165 37.95 74.6366 37.95C73.3966 37.95 72.6366 37.68 72.3566 37.14C72.1965 36.84 72.0965 36.57 72.0565 36.33C72.0366 36.09 72.0266 35.74 72.0266 35.28V18.54C72.0266 17.78 72.1165 17.23 72.2965 16.89C72.4965 16.53 72.7866 16.29 73.1665 16.17C73.5465 16.05 74.0366 15.99 74.6366 15.99C75.2365 15.99 75.7066 16.05 76.0465 16.17C76.4065 16.27 76.6565 16.39 76.7965 16.53C76.8765 16.59 77.1066 16.85 77.4865 17.31C81.7066 23.05 84.5266 26.84 85.9465 28.68V18.54C85.9465 17.78 86.0366 17.23 86.2166 16.89Z" stroke="#1A1A1C"/>
<path d="M108.667 17.415L116.767 34.155C117.107 34.835 117.277 35.345 117.277 35.685C117.277 36.405 116.697 37.055 115.537 37.635C114.857 37.975 114.317 38.145 113.917 38.145C113.537 38.145 113.217 38.055 112.957 37.875C112.717 37.695 112.537 37.505 112.417 37.305C112.317 37.105 112.167 36.805 111.967 36.405L110.407 33.165H102.097L100.537 36.405C100.337 36.805 100.177 37.095 100.057 37.275C99.9566 37.455 99.7766 37.645 99.5166 37.845C99.2766 38.025 98.9566 38.115 98.5566 38.115C98.1766 38.115 97.6466 37.945 96.9666 37.605C95.8066 37.045 95.2266 36.405 95.2266 35.685C95.2266 35.345 95.3966 34.835 95.7366 34.155L103.837 17.385C104.057 16.925 104.387 16.555 104.827 16.275C105.287 15.995 105.767 15.855 106.267 15.855C107.347 15.855 108.147 16.375 108.667 17.415ZM106.237 24.615L104.257 28.725H108.247L106.237 24.615Z" fill="#661217"/>
<path d="M136.106 16.785C136.306 16.425 136.596 16.185 136.976 16.065C137.356 15.945 137.826 15.885 138.386 15.885C138.966 15.885 139.426 15.935 139.766 16.035C140.126 16.135 140.386 16.255 140.546 16.395C140.726 16.535 140.856 16.745 140.936 17.025C141.056 17.345 141.116 17.855 141.116 18.555V35.205C141.116 35.685 141.096 36.035 141.056 36.255C141.036 36.475 140.946 36.735 140.786 37.035C140.506 37.575 139.726 37.845 138.446 37.845C137.666 37.845 137.126 37.785 136.826 37.665C136.526 37.545 136.276 37.355 136.076 37.095C131.576 31.095 128.616 27.175 127.196 25.335V35.205C127.196 35.685 127.176 36.035 127.136 36.255C127.116 36.475 127.026 36.735 126.866 37.035C126.586 37.575 125.806 37.845 124.526 37.845C123.286 37.845 122.526 37.575 122.246 37.035C122.086 36.735 121.986 36.465 121.946 36.225C121.926 35.985 121.916 35.635 121.916 35.175V18.435C121.916 17.675 122.006 17.125 122.186 16.785C122.386 16.425 122.676 16.185 123.056 16.065C123.436 15.945 123.926 15.885 124.526 15.885C125.126 15.885 125.596 15.945 125.936 16.065C126.296 16.165 126.546 16.285 126.686 16.425C126.766 16.485 126.996 16.745 127.376 17.205C131.596 22.945 134.416 26.735 135.836 28.575V18.435C135.836 17.675 135.926 17.125 136.106 16.785Z" fill="#661217"/>
<path d="M108.667 17.415L116.767 34.155C117.107 34.835 117.277 35.345 117.277 35.685C117.277 36.405 116.697 37.055 115.537 37.635C114.857 37.975 114.317 38.145 113.917 38.145C113.537 38.145 113.217 38.055 112.957 37.875C112.717 37.695 112.537 37.505 112.417 37.305C112.317 37.105 112.167 36.805 111.967 36.405L110.407 33.165H102.097L100.537 36.405C100.337 36.805 100.177 37.095 100.057 37.275C99.9566 37.455 99.7766 37.645 99.5166 37.845C99.2766 38.025 98.9566 38.115 98.5566 38.115C98.1766 38.115 97.6466 37.945 96.9666 37.605C95.8066 37.045 95.2266 36.405 95.2266 35.685C95.2266 35.345 95.3966 34.835 95.7366 34.155L103.837 17.385C104.057 16.925 104.387 16.555 104.827 16.275C105.287 15.995 105.767 15.855 106.267 15.855C107.347 15.855 108.147 16.375 108.667 17.415ZM106.237 24.615L104.257 28.725H108.247L106.237 24.615Z" stroke="#1A1A1C"/>
<path d="M136.106 16.785C136.306 16.425 136.596 16.185 136.976 16.065C137.356 15.945 137.826 15.885 138.386 15.885C138.966 15.885 139.426 15.935 139.766 16.035C140.126 16.135 140.386 16.255 140.546 16.395C140.726 16.535 140.856 16.745 140.936 17.025C141.056 17.345 141.116 17.855 141.116 18.555V35.205C141.116 35.685 141.096 36.035 141.056 36.255C141.036 36.475 140.946 36.735 140.786 37.035C140.506 37.575 139.726 37.845 138.446 37.845C137.666 37.845 137.126 37.785 136.826 37.665C136.526 37.545 136.276 37.355 136.076 37.095C131.576 31.095 128.616 27.175 127.196 25.335V35.205C127.196 35.685 127.176 36.035 127.136 36.255C127.116 36.475 127.026 36.735 126.866 37.035C126.586 37.575 125.806 37.845 124.526 37.845C123.286 37.845 122.526 37.575 122.246 37.035C122.086 36.735 121.986 36.465 121.946 36.225C121.926 35.985 121.916 35.635 121.916 35.175V18.435C121.916 17.675 122.006 17.125 122.186 16.785C122.386 16.425 122.676 16.185 123.056 16.065C123.436 15.945 123.926 15.885 124.526 15.885C125.126 15.885 125.596 15.945 125.936 16.065C126.296 16.165 126.546 16.285 126.686 16.425C126.766 16.485 126.996 16.745 127.376 17.205C131.596 22.945 134.416 26.735 135.836 28.575V18.435C135.836 17.675 135.926 17.125 136.106 16.785Z" stroke="#1A1A1C"/>
<path d="M168.309 27.3253C168.705 27.2121 169.08 27.2475 169.433 27.4313C169.787 27.6152 170.162 27.9051 170.558 28.3011C170.968 28.7112 171.258 29.0718 171.427 29.3829C171.611 29.7082 171.71 29.9769 171.724 30.189C171.753 30.4153 171.696 30.6557 171.555 30.9103C171.413 31.2214 171.095 31.6245 170.6 32.1194L160.559 42.1604C160.22 42.4998 159.958 42.7331 159.774 42.8604C159.605 43.0018 159.357 43.122 159.032 43.221C158.452 43.4049 157.71 43.0442 156.804 42.1391C156.253 41.5876 155.913 41.1633 155.786 40.8664C155.659 40.5694 155.617 40.2582 155.659 39.933C156.72 32.5084 157.398 27.6435 157.695 25.3383L150.716 32.3174C150.377 32.6568 150.115 32.8902 149.931 33.0175C149.762 33.1589 149.514 33.2791 149.189 33.3781C148.609 33.5619 147.867 33.2013 146.962 32.2962C146.085 31.4194 145.738 30.6911 145.922 30.1113C146.021 29.786 146.141 29.5244 146.283 29.3264C146.438 29.1425 146.679 28.888 147.004 28.5627L158.841 16.7257C159.378 16.1883 159.831 15.8631 160.199 15.7499C160.595 15.6368 160.969 15.6721 161.323 15.856C161.676 16.0398 162.065 16.3439 162.49 16.7682C162.914 17.1924 163.204 17.5672 163.359 17.8925C163.543 18.2177 163.635 18.4794 163.635 18.6773C163.649 18.7763 163.628 19.1228 163.571 19.7168C162.497 26.7596 161.811 31.4335 161.514 33.7387L166.951 28.3011C167.489 27.7637 167.941 27.4384 168.309 27.3253Z" fill="#4FD6CF"/>
<circle cx="174.079" cy="24.8221" r="2.5" transform="rotate(45 174.079 24.8221)" fill="#4FD6CF"/>
<circle cx="165.594" cy="13.5084" r="2.5" transform="rotate(45 165.594 13.5084)" fill="#4FD6CF"/>
</svg>
