<svg xmlns="http://www.w3.org/2000/svg" xmlns:xlink="http://www.w3.org/1999/xlink" width="548.032" height="132.283" viewBox="0 0 145 35" xmlns:v="https://vecta.io/nano"><defs><linearGradient id="A" gradientUnits="userSpaceOnUse"><stop offset="0" stop-color="#ff0"/><stop offset=".506" stop-color="#fff"/><stop offset="1" stop-color="#ff0"/></linearGradient><linearGradient xlink:href="#A" id="B" x1="170.412" y1="11.412" x2="170.412" y2="28.063"/><linearGradient xlink:href="#A" id="C" x1="138.734" y1="11.412" x2="138.734" y2="28.063"/><path id="D" d="M93.607 34.811q-3.531-3.473-9.762-10.727-6.231-7.273-9.318-10.514.019 7.254.27 15.318.077 2.141.077 2.604 0 1.91-.405 2.508-.405.579-1.505.579-.714 0-1.486-.251-.772-.251-1.543-.733 1.042-1.775 1.466-5.093.424-3.338.424-11.749 0-3.955-.502-5.614-.482-1.659-1.717-2.315.849-1.003 1.505-1.428.656-.444 1.312-.444.617 0 1.215.405.598.386 1.466 1.389.154.174.714.849 7.389 8.797 16.592 19.042.058-2.875.077-5.074.039-2.199.039-3.762 0-5.132-.405-7.813-.405-2.701-1.331-4.322.868-.463 1.563-.675.714-.232 1.331-.232 1.1 0 1.505.656.424.637.424 2.778 0 1.273-.232 6.27-.212 4.977-.212 8.72 0 2.431.116 4.553.116 2.122.328 3.974z"/></defs><g stroke="#000"><g transform="matrix(.97996 0 0 1 -6.287886 0)" stroke-width=".101"><path d="M38.797 19.357q4.977-4.9 7.524-7.929 2.566-3.029 3.299-4.862 1.466.386 2.18.907.714.502.714 1.196 0 1.138-5.923 6.733-2.547 2.392-4.032 3.839.772.83 2.238 2.354 9.82 10.264 11.768 10.379-.328 1.428-.965 2.199-.617.752-1.389.752-.733 0-1.582-.54-.83-.559-2.257-2.064-.232-.251-4.09-4.553-3.859-4.322-7.486-7.736v2.817q0 4.514.232 6.945.232 2.412.752 3.646-.907.579-1.64.868-.714.27-1.35.27-.965 0-1.408-.733-.424-.752-.424-2.392 0-.945.174-5.305.193-4.36.193-7.775 0-4.727-.289-7.061-.27-2.354-.907-3.569.926-.482 1.698-.733.791-.251 1.466-.251 1.023 0 1.408.559.405.54.405 2.006 0 .289-.058 1.466-.232 4.514-.251 8.566z" fill="url(#B)"/><path d="M64.88 33.595q-.907.482-1.736.733-.83.251-1.582.251-1.023 0-1.408-.559-.367-.579-.367-2.199 0-.83.174-5.228.174-4.418.174-8.045 0-4.649-.289-7.158-.27-2.527-.887-3.646.984-.521 1.775-.772.81-.251 1.505-.251 1.003 0 1.408.579.405.579.405 2.064 0 .232-.212 4.804-.193 4.553-.193 8.913 0 4.399.289 6.849.289 2.45.945 3.666z" fill="url(#B)"/><use xlink:href="#D" fill="url(#B)"/><use xlink:href="#D" x="31.678" fill="url(#C)"/><path d="M140.797 22.965q-3.704-6.502-6.174-9.82-2.469-3.318-3.666-3.415.463-1.601 1.158-2.412.695-.83 1.601-.83.502 0 .907.27.405.27.868.945.193.27 1.061 1.794 3.125 5.556 6.289 10.457 3.916-5.653 5.479-8.431 1.563-2.797 1.563-4.013 0-.174-.039-.309-.019-.154-.077-.27.656-.174 1.235-.251.598-.077 1.1-.077.752 0 1.158.367.424.347.424 1.023 0 1.003-4.688 7.736-2.875 4.129-4.649 6.752 0 .463-.019 1.37-.019.887-.019 1.293 0 3.357.27 5.383.27 2.006.849 3.106-.926.482-1.717.714-.791.232-1.524.232-.984 0-1.37-.521-.386-.54-.386-1.891 0-.27.135-3.299.154-3.048.232-5.904z" fill="url(#B)"/></g><g fill="#ff0" stroke-width=".1"><path d="M13.914.62C8.148 1.537 3.059 6.035 1.197 11.864.576 13.831.411 14.97.411 17.485c-.014 2.559.193 3.95.841 5.918.966 2.9 2.897 5.814 4.29 6.48.745.34 2.028.754 3.586 1.124.634.163 1.2.325 1.241.385.207.222-3.034-.311-3.765-.607-.91-.385 1.393 1.45 2.759 2.19 1.214.666 3.186 1.302 4.759 1.553 3.297.533 7.048-.311 9.696-2.19 1.048-.725 1.338-1.228 1.338-2.337 0-1.405-.69-2.515-1.986-3.225-.966-.533-1.738-.754-3.531-1.021-.869-.133-1.628-.311-1.683-.399-.248-.414-.083-1.509.455-3.077.676-1.982.897-2.796 1.021-3.713.069-.518.166-.725.372-.799.359-.118.8-.917.8-1.435 0-.281-.193-.636-.607-1.11-.331-.385-.703-.917-.828-1.169-.276-.592-.634-.843-1.531-1.065-1.159-.311-1.545-.962-1.172-1.997.11-.325.221-.385.662-.385.883 0 1.448-.888 1.448-2.234 0-1.494-.759-2.663-2.028-3.092-1.338-.459-3.462.636-4.028 2.056-.11.281-.317 1.021-.469 1.657-.331 1.465-.621 2.056-1.531 3.166-.855 1.05-1.228 1.849-1.228 2.663 0 .695.372 1.613.897 2.19l.372.414-.469.828c-.621 1.08-2.041 2.737-3.807 4.483-.786.769-1.476 1.42-1.531 1.45-.138.044-1.034-1.923-1.366-3.048-.841-2.752-1.034-6.213-.469-8.64 1.159-5.03 3.834-7.412 9.862-8.802 1.738-.399 5.09-.37 7.021.074 4.069.932 5.877 1.575 7.353 3.972.451 1.216 1.344.128 1.272-.571-2.497-4.823-5.273-5.856-10.487-6.611C16.576.354 15.5.383 13.914.62zm.841 11.806c-1.31.799-2.138 1.479-2.497 2.027-.483.74-.593.651-.276-.222.276-.784.841-1.257 2.166-1.79 1.09-.429 1.297-.429.607-.015zm-.331 4.409c.966.902 1.531 2.071 1.545 3.225.014 1.08-.303 1.568-1.848 2.826-2.041 1.672-2.759 2.766-2.759 4.216.014 1.376.676 2.367 1.986 2.944.69.311 2.634.681 3.655.695l.772.015-.8.281c-1.117.385-3.021.621-4.193.533-1.766-.148-3.393-1.184-5.421-3.447-1.186-1.331-2.124-2.633-2.041-2.855.028-.059.731-.74 1.559-1.509 2.276-2.086 3.765-3.772 4.883-5.518.538-.858 1.048-1.568 1.103-1.568s.179-.163.262-.37c.193-.459.262-.429 1.297.533z"/><path d="M21.638 13.757c-.372.399-.483.636-.483 1.065 0 .843.317 1.376 1.628 2.781l1.228 1.302 1.448-1.524c1.531-1.598 1.752-2.012 1.559-2.929-.11-.577-.8-1.184-1.324-1.184-.566 0-1.186.37-1.421.858-.124.237-.207.311-.221.163 0-.414-.648-.902-1.297-.976-.579-.074-.662-.044-1.117.444z" fill="red"/></g></g></svg>