<svg width="858" height="605" viewBox="0 0 858 605" fill="none" xmlns="http://www.w3.org/2000/svg">
<path d="M145.05 435.162L89.08 563.782L33.58 435.162H0L72.88 601.882H103.37L176.02 435.162H145.05Z" fill="#FB064B"/>
<path d="M232.7 435.162L157.68 601.892H189.6L206.03 563.302H289.39L306.06 601.892H338.45L263.18 435.162H232.7ZM216.51 539.002L247.71 466.122L279.15 539.002H216.51Z" fill="#FB064B"/>
<path d="M509.23 435.162L444.21 545.672L377.99 435.162H352.51V601.882H382.04V492.802L436.82 582.832H450.64L505.42 491.372L505.66 601.882H534.95L534.72 435.162H509.23Z" fill="#FB064B"/>
<path d="M679.17 442.302C668.45 437.542 655.87 435.152 641.42 435.152H572.82V601.882H603.79V553.772H641.42C655.87 553.772 668.46 551.392 679.17 546.622C689.89 541.862 698.11 534.992 703.82 526.022C709.54 517.052 712.4 506.532 712.4 494.462C712.4 482.232 709.54 471.682 703.82 462.782C698.11 453.902 689.89 447.072 679.17 442.302ZM670.71 519.002C663.72 524.722 653.48 527.572 639.98 527.572H603.78V461.362H639.98C653.47 461.362 663.72 464.222 670.71 469.932C677.7 475.652 681.19 483.832 681.19 494.462C681.19 505.102 677.7 513.282 670.71 519.002Z" fill="#FB064B"/>
<path d="M849.23 529.002C843.59 522.652 836.8 517.932 828.87 514.832C820.93 511.732 810.77 508.762 798.38 505.902C789.33 503.682 782.19 501.702 776.94 499.952C771.7 498.202 767.37 495.822 763.96 492.802C760.54 489.792 758.84 485.892 758.84 481.132C758.84 474.312 761.82 468.832 767.77 464.702C773.73 460.572 782.81 458.512 795.04 458.512C802.5 458.512 810.2 459.622 818.14 461.852C826.08 464.082 833.7 467.332 841 471.622L850.77 447.562C843.62 442.802 835.13 439.152 825.28 436.602C815.43 434.062 805.43 432.792 795.27 432.792C780.66 432.792 768.32 435.012 758.23 439.462C748.14 443.912 740.6 449.902 735.6 457.442C730.6 464.982 728.1 473.362 728.1 482.572C728.1 493.532 730.92 502.222 736.56 508.652C742.19 515.082 748.94 519.812 756.81 522.822C764.67 525.842 774.95 528.862 787.65 531.872C796.7 534.092 803.85 536.082 809.09 537.822C814.33 539.572 818.65 541.992 822.07 545.092C825.48 548.192 827.19 552.112 827.19 556.882C827.19 563.392 824.13 568.632 818.02 572.602C811.91 576.572 802.66 578.552 790.27 578.552C780.27 578.552 770.3 576.852 760.38 573.432C750.45 570.022 742.08 565.612 735.25 560.212L724.53 584.272C731.51 590.312 741 595.152 752.99 598.802C764.98 602.452 777.41 604.282 790.27 604.282C804.87 604.282 817.26 602.062 827.43 597.612C837.59 593.172 845.17 587.212 850.18 579.752C855.18 572.292 857.68 563.952 857.68 554.742C857.69 543.932 854.87 535.352 849.23 529.002Z" fill="#FB064B"/>
<path d="M451.76 261.202H451.75C503.49 261.312 627.47 248.502 660.06 126.712C660.06 126.712 544.83 -70.4084 428.84 27.0716C312.84 -70.4084 197.62 126.712 197.62 126.712V359.552L276.83 261.202H451.76ZM557.96 133.002H299.73C363.25 101.692 494.44 101.692 557.96 133.002Z" fill="#FB064B"/>
</svg>
