<?xml version="1.0" encoding="utf-8"?>
<!-- Generator: Adobe Illustrator 24.1.2, SVG Export Plug-In . SVG Version: 6.00 Build 0)  -->
<svg version="1.1" id="Layer_1" xmlns="http://www.w3.org/2000/svg" xmlns:xlink="http://www.w3.org/1999/xlink" x="0px" y="0px"
	 viewBox="0 0 980.1 506.8" style="enable-background:new 0 0 980.1 506.8;" xml:space="preserve">
<style type="text/css">
	.st0{fill:#FFFFFF;}
	.st1{fill-rule:evenodd;clip-rule:evenodd;fill:#FFFFFF;}
</style>
<g>
	<path class="st0" d="M85.3,20.6c36.1,0,63.5,19.6,63.5,57.8c0,29.3-16,48.8-39.9,56.4l67,80.5h-56.4L60,138.4v76.9H15.6V20.6H85.3z
		 M65.3,106.9c16.8,0,36.8-1.2,36.8-25.5S82,55.9,65.3,55.9h-5.2v51H65.3z"/>
	<path class="st0" d="M213.7,160.5c0,18.6,15.6,25,26.2,25c13.4,0,19.3-2.6,29.5-13.4l30.2,15.1c-13.7,22.9-35.9,31.6-62.8,31.6
		c-36.6,0-66.5-28.8-66.5-63.9c0-35.4,30-64.2,66.5-64.2c36.8,0,64.9,21.7,64.9,64.2c0,1.7,0,4.2-0.2,5.7h-87.8V160.5z M260.9,137.4
		c-1.9-12.7-10.6-19.6-22.9-19.6c-14.4,0-22.4,8.5-23.1,19.6H260.9z"/>
	<path class="st0" d="M356,160.5c0,18.6,15.6,25,26.2,25c13.4,0,19.3-2.6,29.5-13.4l30.2,15.1c-13.7,22.9-35.9,31.6-62.8,31.6
		c-36.6,0-66.5-28.8-66.5-63.9c0-35.4,30-64.2,66.5-64.2c36.8,0,64.9,21.7,64.9,64.2c0,1.7,0,4.2-0.2,5.7H356V160.5z M403.1,137.4
		c-1.9-12.7-10.6-19.6-22.9-19.6c-14.4,0-22.4,8.5-23.1,19.6H403.1z"/>
	<path class="st0" d="M463.1,12.3h41.8v202.9h-41.8V12.3z"/>
	<path class="st0" d="M626.4,100.1l-13.7,27.4c0,0-14.2-7.6-26.9-7.6c-9.2,0-13,1.7-13,7.3c0,6.4,8.5,8.3,18.9,11.6
		c16,5,36.8,13.9,36.8,38.7c0,35.6-32.6,41.3-57.3,41.3c-29.3,0-46.7-16.3-46.7-16.3l17-28.5c0,0,16.5,13.9,30,13.9
		c5.9,0,13-0.7,13-8.7c0-8.7-13.2-9.4-26.9-16.5c-12.3-6.4-24.5-14.9-24.5-33c0-24.8,21-38.9,52.9-38.9
		C609.1,90.6,626.4,100.1,626.4,100.1z"/>
	<path class="st0" d="M167.4,327h-1.2l-39.9,114.2H99.9L60,327h-1.2l-9.2,115.4H5.2l17.5-194.7h47.2L113.2,360l43.2-112.3h47.2
		l17.5,194.7h-44.4L167.4,327z"/>
	<path class="st0" d="M278.3,378.9c0,23.8,6.4,33,23.8,33s23.8-9.2,23.8-33v-57.6h41.8V389c0,40.6-20.3,56.9-65.6,56.9
		s-65.6-16.3-65.6-56.9v-67.7h41.8V378.9z"/>
	<path class="st0" d="M393.7,321.3h41.8V334h0.5c9.4-9.4,21.5-16.3,34.7-16.3c22.2,0,53.1,11.1,53.1,44.8v79.8H482v-68.4
		c0-12-8.3-23.6-21.7-23.6c-12.5,0-24.8,11.6-24.8,23.6v68.4h-41.8V321.3z"/>
	<path class="st0" d="M630.4,379.1l63.2,63.2h-53.8l-48.4-48.4v48.4h-41.8V239.4h41.8v124.1l42.2-42.2h54.3L630.4,379.1z"/>
	<path class="st0" d="M730.9,387.6c0,18.6,15.6,25,26.2,25c13.4,0,19.3-2.6,29.5-13.4l30.2,15.1c-13.7,22.9-35.9,31.6-62.8,31.6
		c-36.6,0-66.5-28.8-66.5-63.9c0-35.4,30-64.2,66.5-64.2c36.8,0,64.9,21.7,64.9,64.2c0,1.7,0,4.2-0.2,5.7L730.9,387.6L730.9,387.6z
		 M778.1,364.5c-1.9-12.7-10.6-19.6-22.9-19.6c-14.4,0-22.4,8.5-23.1,19.6H778.1z"/>
	<path class="st0" d="M977.2,321.3l-95.1,182.4H834l41.8-80.2l-57.3-102.2h48.1l33.7,62.1l28.8-62.1L977.2,321.3L977.2,321.3z"/>
</g>
<g id="layer1" transform="translate(-117.2998,43.705632)">
	<path class="st1" d="M889.2,104.9c-9.5-12.4-26.1-15.8-37-7.4c-10.9,8.4-12.1,25.3-2.5,37.7c9.5,12.4,26.1,15.8,37,7.4
		C897.6,134.2,898.7,117.4,889.2,104.9z M869.1,114c-4.1,3.1-9.9,2.3-13.1-1.7c-3.1-4.1-2.3-9.9,1.7-13.1c4.1-3.2,10-2.4,13.1,1.7
		C873.9,105,873.1,110.9,869.1,114z"/>
	<path class="st1" d="M958.3,52.1c-9.5-12.4-26.1-15.8-37-7.4s-12.1,25.3-2.5,37.7c9.5,12.4,26.1,15.8,37,7.4
		C966.7,81.4,967.8,64.5,958.3,52.1z M938.1,61.2c-4.1,3.1-9.9,2.3-13.1-1.7c-3.1-4.1-2.3-9.9,1.7-13.1c4.1-3.2,9.9-2.4,13.1,1.7
		C943,52.2,942.2,58,938.1,61.2z"/>
	<path class="st1" d="M1057.6,59.1c1.8-0.7,3.6-1.7,5.2-2.9c15.4-11.8,12-42.2-7.6-67.8c-19.6-25.6-48.1-36.9-63.5-25.1
		c-6.1,4.7-9.3,12.3-9.6,21.3C939.3-52.6,874.3-47.6,825.2-10c-48.6,37.1-70.5,97.8-46.9,148.5c-8.1-1.4-15.5-0.2-21.1,4.1
		c-15.4,11.8-12,42.1,7.6,67.8c19.6,25.7,48.1,36.9,63.5,25.1c1.1-0.8,2.1-1.7,2.9-2.7c21.7,64.6,114.3,81.1,194.7,19.6
		C1106.5,190.7,1114.7,96.8,1057.6,59.1z M998.7-18.9c11.9-9.1,32.5-1.9,46.2,15.9c13.7,17.8,15.2,39.6,3.3,48.7
		c-2.8,2.2-6.2,3.4-9.8,3.8c-6.1-2.2-12.7-3.9-19.8-5.1c-6.2-20.9-15.7-37.7-27.3-50.7C992.3-11.5,994.7-15.9,998.7-18.9z
		 M827,212.8c-1.3,2.3-2.9,4.3-5,5.9c-11.8,9.1-32.5,1.9-46.2-15.9c-13.7-17.8-15.1-39.7-3.3-48.7c3.5-2.6,7.6-3.9,12.2-4
		c9.5,15.1,23.5,29,42.4,40.8C826.3,198.5,826.3,205.9,827,212.8z M1015,238.2c-63.8,48.8-127.5,46.4-157.9,6.6
		c-18.1-23.7-16.8-40.7-11.4-64.7c-14-5-28.2-16.5-38.6-30.1c-23.8-31.2-22.5-70.1,1.6-91.1c0.8-0.7,1.7-1.3,2.5-1.9
		c17.4-13.3,41.3-13.8,62.6-3.4C869.3,30.3,876,7.3,893.4-6c26.5-20.3,66.3-11.9,90.9,20.3c10.4,13.6,17.8,30.4,19,45.2
		c24.5,1.1,41.3,4.3,59.4,28C1093.1,127.3,1078.8,189.4,1015,238.2z"/>
	<path class="st1" d="M889.2,104.9c-9.5-12.4-26.1-15.8-37-7.4c-10.9,8.4-12.1,25.3-2.5,37.7c9.5,12.4,26.1,15.8,37,7.4
		C897.6,134.2,898.7,117.4,889.2,104.9z M869.1,114c-4.1,3.1-9.9,2.3-13.1-1.7c-3.1-4.1-2.3-9.9,1.7-13.1c4.1-3.2,10-2.4,13.1,1.7
		C873.9,105,873.1,110.9,869.1,114z"/>
	<path class="st1" d="M958.3,52.1c-9.5-12.4-26.1-15.8-37-7.4s-12.1,25.3-2.5,37.7c9.5,12.4,26.1,15.8,37,7.4
		C966.7,81.4,967.8,64.5,958.3,52.1z M938.1,61.2c-4.1,3.1-9.9,2.3-13.1-1.7c-3.1-4.1-2.3-9.9,1.7-13.1c4.1-3.2,9.9-2.4,13.1,1.7
		C943,52.2,942.2,58,938.1,61.2z"/>
	<g id="g5056" transform="translate(114.32408,-50.202758)">
		<g id="g5058" transform="matrix(0.41061481,0,0,0.41061481,37.955384,10.947249)">
			<path class="st0" d="M1962.9,222.4c-23.2-30.3-63.6-38.4-90.2-18c-26.6,20.4-29.4,61.5-6.2,91.8c23.2,30.3,63.6,38.4,90.2,18
				C1983.3,293.8,1986.1,252.7,1962.9,222.4z M1913.8,244.6c-10,7.6-24.2,5.7-31.9-4.2c-7.6-10-5.7-24.2,4.2-31.9
				c9.9-7.7,24.2-5.8,31.9,4.2C1925.6,222.7,1923.7,236.9,1913.8,244.6z"/>
			<path class="st0" d="M1962.9,222.4c-23.2-30.3-63.6-38.4-90.2-18c-26.6,20.4-29.4,61.5-6.2,91.8c23.2,30.3,63.6,38.4,90.2,18
				C1983.3,293.8,1986.1,252.7,1962.9,222.4z M1913.8,244.6c-10,7.6-24.2,5.7-31.9-4.2c-7.6-10-5.7-24.2,4.2-31.9
				c9.9-7.7,24.2-5.8,31.9,4.2C1925.6,222.7,1923.7,236.9,1913.8,244.6z"/>
		</g>
		<g id="g5066" transform="matrix(0.41061481,0,0,0.41061481,28.219551,10.947249)">
			<path class="st0" d="M1818.4,351.1c-23.1-30.3-63.5-38.4-90.2-18c-26.6,20.4-29.4,61.5-6.2,91.8c23.2,30.3,63.6,38.4,90.2,18
				C1838.8,422.5,1841.6,381.4,1818.4,351.1z M1769.3,373.3c-10,7.6-24.2,5.7-31.9-4.2c-7.6-10-5.7-24.2,4.2-31.9
				c10-7.7,24.3-5.8,31.9,4.2C1781.1,351.4,1779.2,365.6,1769.3,373.3z"/>
			<path class="st0" d="M1818.4,351.1c-23.1-30.3-63.5-38.4-90.2-18c-26.6,20.4-29.4,61.5-6.2,91.8c23.2,30.3,63.6,38.4,90.2,18
				C1838.8,422.5,1841.6,381.4,1818.4,351.1z M1769.3,373.3c-10,7.6-24.2,5.7-31.9-4.2c-7.6-10-5.7-24.2,4.2-31.9
				c10-7.7,24.3-5.8,31.9,4.2C1781.1,351.4,1779.2,365.6,1769.3,373.3z"/>
		</g>
	</g>
	<path class="st0" d="M890.1,223.4c-0.4,0-0.7-0.3-0.7-0.7c0-0.4,0.3-0.7,0.7-0.7c91.4-1.1,123.5-58.3,141.2-108.1
		c0.1-0.3,0.5-0.5,0.9-0.4c0.3,0.1,0.5,0.5,0.4,0.9c-12.4,35-27.6,59.4-47.7,76.9C960.7,212.5,929.7,222.9,890.1,223.4
		C890.1,223.4,890.1,223.4,890.1,223.4z"/>
</g>
</svg>
